<?xml version="1.0" encoding="UTF-8" standalone="no"?>
<!-- Created with Inkscape (http://www.inkscape.org/) -->

<svg
   version="1.1"
   id="svg2"
   width="966.71924"
   height="810.14941"
   viewBox="0 0 966.71924 810.14941"
   sodipodi:docname="experimental_design_actual.svg"
   inkscape:version="1.2.2 (1:1.2.2+202305151914+b0a8486541)"
   xmlns:inkscape="http://www.inkscape.org/namespaces/inkscape"
   xmlns:sodipodi="http://sodipodi.sourceforge.net/DTD/sodipodi-0.dtd"
   xmlns="http://www.w3.org/2000/svg"
   xmlns:svg="http://www.w3.org/2000/svg">
  <defs
     id="defs6" />
  <sodipodi:namedview
     id="namedview4"
     pagecolor="#ffffff"
     bordercolor="#666666"
     borderopacity="1.0"
     inkscape:showpageshadow="2"
     inkscape:pageopacity="0.0"
     inkscape:pagecheckerboard="0"
     inkscape:deskcolor="#d1d1d1"
     showgrid="false"
     inkscape:zoom="0.58260858"
     inkscape:cx="281.49259"
     inkscape:cy="381.04485"
     inkscape:window-width="1846"
     inkscape:window-height="1043"
     inkscape:window-x="1994"
     inkscape:window-y="0"
     inkscape:window-maximized="1"
     inkscape:current-layer="g10">
    <inkscape:page
       x="0"
       y="0"
       id="page8"
       width="966.71924"
       height="810.14941" />
  </sodipodi:namedview>
  <g
     id="g10"
     inkscape:groupmode="layer"
     inkscape:label="Page 1"
     transform="matrix(1.3333333,0,0,1.3333333,0,2.4920402e-5)">
    <g
       id="g12">
      <g
         id="g14">
        <path
           d="m 391.492,184.363 c 0,16.836 -13.637,30.485 -30.457,30.485 -16.824,0 -30.457,-13.649 -30.457,-30.485 0,-16.836 13.633,-30.484 30.457,-30.484 16.82,0 30.457,13.648 30.457,30.484 z"
           style="fill:#f7f7f7;fill-opacity:1;fill-rule:nonzero;stroke:#000000;stroke-width:0.767506;stroke-linecap:butt;stroke-linejoin:miter;stroke-miterlimit:4;stroke-dasharray:none;stroke-opacity:1"
           id="path16" />
      </g>
      <g
         id="g18">
        <path
           d="m 466.992,184.363 c 0,16.836 -13.637,30.485 -30.461,30.485 -16.82,0 -30.457,-13.649 -30.457,-30.485 0,-16.836 13.637,-30.484 30.457,-30.484 16.824,0 30.461,13.648 30.461,30.484 z"
           style="fill:#f7f7f7;fill-opacity:1;fill-rule:nonzero;stroke:#000000;stroke-width:0.767506;stroke-linecap:butt;stroke-linejoin:miter;stroke-miterlimit:4;stroke-dasharray:none;stroke-opacity:1"
           id="path20" />
      </g>
      <g
         id="g22">
        <path
           d="m 542.488,184.363 c 0,16.836 -13.633,30.485 -30.457,30.485 -16.82,0 -30.457,-13.649 -30.457,-30.485 0,-16.836 13.637,-30.484 30.457,-30.484 16.824,0 30.457,13.648 30.457,30.484 z"
           style="fill:#f7f7f7;fill-opacity:1;fill-rule:nonzero;stroke:#000000;stroke-width:0.767506;stroke-linecap:butt;stroke-linejoin:miter;stroke-miterlimit:4;stroke-dasharray:none;stroke-opacity:1"
           id="path24" />
      </g>
      <g
         id="g26">
        <path
           d="m 617.988,184.363 c 0,16.836 -13.633,30.485 -30.457,30.485 -16.82,0 -30.457,-13.649 -30.457,-30.485 0,-16.836 13.637,-30.484 30.457,-30.484 16.824,0 30.457,13.648 30.457,30.484 z"
           style="fill:#f7f7f7;fill-opacity:1;fill-rule:nonzero;stroke:#000000;stroke-width:0.767506;stroke-linecap:butt;stroke-linejoin:miter;stroke-miterlimit:4;stroke-dasharray:none;stroke-opacity:1"
           id="path28" />
      </g>
      <g
         id="g30">
        <path
           d="m 391.492,259.93 c 0,16.836 -13.637,30.484 -30.457,30.484 -16.824,0 -30.457,-13.648 -30.457,-30.484 0,-16.836 13.633,-30.485 30.457,-30.485 16.82,0 30.457,13.649 30.457,30.485 z"
           style="fill:#f7f7f7;fill-opacity:1;fill-rule:nonzero;stroke:#000000;stroke-width:0.767506;stroke-linecap:butt;stroke-linejoin:miter;stroke-miterlimit:4;stroke-dasharray:none;stroke-opacity:1"
           id="path32" />
      </g>
      <g
         id="g34">
        <path
           d="m 466.992,259.93 c 0,16.836 -13.637,30.484 -30.461,30.484 -16.82,0 -30.457,-13.648 -30.457,-30.484 0,-16.836 13.637,-30.485 30.457,-30.485 16.824,0 30.461,13.649 30.461,30.485 z"
           style="fill:#f7f7f7;fill-opacity:1;fill-rule:nonzero;stroke:#000000;stroke-width:0.767506;stroke-linecap:butt;stroke-linejoin:miter;stroke-miterlimit:4;stroke-dasharray:none;stroke-opacity:1"
           id="path36" />
      </g>
      <g
         id="g38">
        <path
           d="m 542.488,259.93 c 0,16.836 -13.633,30.484 -30.457,30.484 -16.82,0 -30.457,-13.648 -30.457,-30.484 0,-16.836 13.637,-30.485 30.457,-30.485 16.824,0 30.457,13.649 30.457,30.485 z"
           style="fill:#f7f7f7;fill-opacity:1;fill-rule:nonzero;stroke:#000000;stroke-width:0.767506;stroke-linecap:butt;stroke-linejoin:miter;stroke-miterlimit:4;stroke-dasharray:none;stroke-opacity:1"
           id="path40" />
      </g>
      <g
         id="g42">
        <path
           d="m 617.988,259.93 c 0,16.836 -13.633,30.484 -30.457,30.484 -16.82,0 -30.457,-13.648 -30.457,-30.484 0,-16.836 13.637,-30.485 30.457,-30.485 16.824,0 30.457,13.649 30.457,30.485 z"
           style="fill:#f7f7f7;fill-opacity:1;fill-rule:nonzero;stroke:#000000;stroke-width:0.767506;stroke-linecap:butt;stroke-linejoin:miter;stroke-miterlimit:4;stroke-dasharray:none;stroke-opacity:1"
           id="path44" />
      </g>
      <g
         id="g46">
        <path
           d="m 391.492,335.5 c 0,16.836 -13.637,30.484 -30.457,30.484 -16.824,0 -30.457,-13.648 -30.457,-30.484 0,-16.84 13.633,-30.488 30.457,-30.488 16.82,0 30.457,13.648 30.457,30.488 z"
           style="fill:#f7f7f7;fill-opacity:1;fill-rule:nonzero;stroke:#000000;stroke-width:0.767506;stroke-linecap:butt;stroke-linejoin:miter;stroke-miterlimit:4;stroke-dasharray:none;stroke-opacity:1"
           id="path48" />
      </g>
      <g
         id="g50">
        <path
           d="m 466.992,335.5 c 0,16.836 -13.637,30.484 -30.461,30.484 -16.82,0 -30.457,-13.648 -30.457,-30.484 0,-16.84 13.637,-30.488 30.457,-30.488 16.824,0 30.461,13.648 30.461,30.488 z"
           style="fill:#f7f7f7;fill-opacity:1;fill-rule:nonzero;stroke:#000000;stroke-width:0.767506;stroke-linecap:butt;stroke-linejoin:miter;stroke-miterlimit:4;stroke-dasharray:none;stroke-opacity:1"
           id="path52" />
      </g>
      <g
         id="g54">
        <path
           d="m 542.488,335.5 c 0,16.836 -13.633,30.484 -30.457,30.484 -16.82,0 -30.457,-13.648 -30.457,-30.484 0,-16.84 13.637,-30.488 30.457,-30.488 16.824,0 30.457,13.648 30.457,30.488 z"
           style="fill:#f7f7f7;fill-opacity:1;fill-rule:nonzero;stroke:#000000;stroke-width:0.767506;stroke-linecap:butt;stroke-linejoin:miter;stroke-miterlimit:4;stroke-dasharray:none;stroke-opacity:1"
           id="path56" />
      </g>
      <g
         id="g58">
        <path
           d="m 617.988,335.5 c 0,16.836 -13.633,30.484 -30.457,30.484 -16.82,0 -30.457,-13.648 -30.457,-30.484 0,-16.84 13.637,-30.488 30.457,-30.488 16.824,0 30.457,13.648 30.457,30.488 z"
           style="fill:#f7f7f7;fill-opacity:1;fill-rule:nonzero;stroke:#000000;stroke-width:0.767506;stroke-linecap:butt;stroke-linejoin:miter;stroke-miterlimit:4;stroke-dasharray:none;stroke-opacity:1"
           id="path60" />
      </g>
      <g
         id="g62">
        <path
           d="m 391.492,108.793 c 0,16.84 -13.637,30.488 -30.457,30.488 -16.824,0 -30.457,-13.648 -30.457,-30.488 0,-16.836 13.633,-30.484 30.457,-30.484 16.82,0 30.457,13.648 30.457,30.484 z"
           style="fill:#f7f7f7;fill-opacity:1;fill-rule:nonzero;stroke:#000000;stroke-width:0.767506;stroke-linecap:butt;stroke-linejoin:miter;stroke-miterlimit:4;stroke-dasharray:none;stroke-opacity:1"
           id="path64" />
      </g>
      <g
         id="g66">
        <path
           d="m 167.062,185.449 c 0,16.84 -13.636,30.489 -30.457,30.489 -16.82,0 -30.457,-13.649 -30.457,-30.489 0,-16.836 13.637,-30.484 30.457,-30.484 16.821,0 30.457,13.648 30.457,30.484 z"
           style="fill:#f7f7f7;fill-opacity:1;fill-rule:nonzero;stroke:#000000;stroke-width:0.767506;stroke-linecap:butt;stroke-linejoin:miter;stroke-miterlimit:4;stroke-dasharray:none;stroke-opacity:1"
           id="path68" />
      </g>
      <g
         id="g70">
        <path
           d="m 167.062,261.02 c 0,16.835 -13.636,30.484 -30.457,30.484 -16.82,0 -30.457,-13.649 -30.457,-30.484 0,-16.836 13.637,-30.485 30.457,-30.485 16.821,0 30.457,13.649 30.457,30.485 z"
           style="fill:#f7f7f7;fill-opacity:1;fill-rule:nonzero;stroke:#000000;stroke-width:0.767506;stroke-linecap:butt;stroke-linejoin:miter;stroke-miterlimit:4;stroke-dasharray:none;stroke-opacity:1"
           id="path72" />
      </g>
      <g
         id="g74">
        <path
           d="m 167.062,336.586 c 0,16.836 -13.636,30.484 -30.457,30.484 -16.82,0 -30.457,-13.648 -30.457,-30.484 0,-16.836 13.637,-30.484 30.457,-30.484 16.821,0 30.457,13.648 30.457,30.484 z"
           style="fill:#f7f7f7;fill-opacity:1;fill-rule:nonzero;stroke:#000000;stroke-width:0.767506;stroke-linecap:butt;stroke-linejoin:miter;stroke-miterlimit:4;stroke-dasharray:none;stroke-opacity:1"
           id="path76" />
      </g>
      <g
         id="g78">
        <path
           d="m 167.062,109.883 c 0,16.836 -13.636,30.484 -30.457,30.484 -16.82,0 -30.457,-13.648 -30.457,-30.484 0,-16.836 13.637,-30.485 30.457,-30.485 16.821,0 30.457,13.649 30.457,30.485 z"
           style="fill:#f7f7f7;fill-opacity:1;fill-rule:nonzero;stroke:#000000;stroke-width:0.767506;stroke-linecap:butt;stroke-linejoin:miter;stroke-miterlimit:4;stroke-dasharray:none;stroke-opacity:1"
           id="path80" />
      </g>
      <text
         xml:space="preserve"
         transform="matrix(0.99868094,0,0,1,125.73913,116.19555)"
         style="font-variant:normal;font-weight:normal;font-size:17.3412px;font-family:'DejaVu Sans';-inkscape-font-specification:DejaVuSans;writing-mode:lr-tb;fill:#000000;fill-opacity:1;fill-rule:nonzero;stroke:none"
         id="text84"><tspan
           x="0 11.028978"
           y="0"
           sodipodi:role="line"
           id="tspan82">40</tspan></text>
      <g
         id="g86">
        <path
           d="m 466.992,108.793 c 0,16.84 -13.637,30.488 -30.461,30.488 -16.82,0 -30.457,-13.648 -30.457,-30.488 0,-16.836 13.637,-30.484 30.457,-30.484 16.824,0 30.461,13.648 30.461,30.484 z"
           style="fill:#f7f7f7;fill-opacity:1;fill-rule:nonzero;stroke:#000000;stroke-width:0.767506;stroke-linecap:butt;stroke-linejoin:miter;stroke-miterlimit:4;stroke-dasharray:none;stroke-opacity:1"
           id="path88" />
      </g>
      <g
         id="g90">
        <path
           d="m 542.488,108.793 c 0,16.84 -13.633,30.488 -30.457,30.488 -16.82,0 -30.457,-13.648 -30.457,-30.488 0,-16.836 13.637,-30.484 30.457,-30.484 16.824,0 30.457,13.648 30.457,30.484 z"
           style="fill:#f7f7f7;fill-opacity:1;fill-rule:nonzero;stroke:#000000;stroke-width:0.767506;stroke-linecap:butt;stroke-linejoin:miter;stroke-miterlimit:4;stroke-dasharray:none;stroke-opacity:1"
           id="path92" />
      </g>
      <g
         id="g94">
        <path
           d="m 617.988,108.793 c 0,16.84 -13.633,30.488 -30.457,30.488 -16.82,0 -30.457,-13.648 -30.457,-30.488 0,-16.836 13.637,-30.484 30.457,-30.484 16.824,0 30.457,13.648 30.457,30.484 z"
           style="fill:#f7f7f7;fill-opacity:1;fill-rule:nonzero;stroke:#000000;stroke-width:0.767506;stroke-linecap:butt;stroke-linejoin:miter;stroke-miterlimit:4;stroke-dasharray:none;stroke-opacity:1"
           id="path96" />
      </g>
      <text
         xml:space="preserve"
         transform="matrix(0.99868087,0,0,1,60.619168,152.06724)"
         style="font-variant:normal;font-weight:normal;font-size:13.0086px;font-family:'DejaVu Sans';-inkscape-font-specification:DejaVuSans;writing-mode:lr-tb;fill:#000000;fill-opacity:1;fill-rule:nonzero;stroke:none"
         id="text100"><tspan
           x="0 8.2734566 12.64434"
           y="0"
           sodipodi:role="line"
           id="tspan98">1:1</tspan></text>
      <g
         id="g102">
        <path
           d="m 98.059,124.957 c -4.575,4.828 -9.364,10.406 -9.543,20.605 0.293,9.586 7.343,17.168 13.105,19.633"
           style="fill:none;stroke:#000000;stroke-width:0.749999;stroke-linecap:butt;stroke-linejoin:miter;stroke-miterlimit:4;stroke-dasharray:none;stroke-opacity:1"
           id="path104" />
      </g>
      <g
         id="g106"
         transform="matrix(1,0.427546,-0.427546,1,0,0)">
        <path
           d="m 147.617,102.93 -2.982,1.724 v -3.445 z"
           style="fill:#000000;fill-opacity:1;fill-rule:evenodd;stroke:#000000;stroke-width:0.459742;stroke-linecap:butt;stroke-linejoin:miter;stroke-miterlimit:4;stroke-dasharray:none;stroke-opacity:1"
           id="path108" />
      </g>
      <g
         id="g110">
        <path
           d="m 98.059,202.328 c -4.575,4.828 -9.364,10.406 -9.543,20.606 0.293,9.586 7.343,17.168 13.105,19.632"
           style="fill:none;stroke:#000000;stroke-width:0.749999;stroke-linecap:butt;stroke-linejoin:miter;stroke-miterlimit:4;stroke-dasharray:none;stroke-opacity:1"
           id="path112" />
      </g>
      <g
         id="g114"
         transform="matrix(1,0.427546,-0.427546,1,0,0)">
        <path
           d="m 175.584,168.344 -2.982,1.724 v -3.445 z"
           style="fill:#000000;fill-opacity:1;fill-rule:evenodd;stroke:#000000;stroke-width:0.459742;stroke-linecap:butt;stroke-linejoin:miter;stroke-miterlimit:4;stroke-dasharray:none;stroke-opacity:1"
           id="path116" />
      </g>
      <g
         id="g118">
        <path
           d="m 95.207,282.195 c -4.574,4.825 -9.363,10.407 -9.543,20.602 0.289,9.59 7.344,17.172 13.106,19.633"
           style="fill:none;stroke:#000000;stroke-width:0.749999;stroke-linecap:butt;stroke-linejoin:miter;stroke-miterlimit:4;stroke-dasharray:none;stroke-opacity:1"
           id="path120" />
      </g>
      <g
         id="g122"
         transform="matrix(1,0.427546,-0.427546,1,0,0)">
        <path
           d="m 202.043,236.899 -2.982,1.724 -0.002,-3.449 z"
           style="fill:#000000;fill-opacity:1;fill-rule:evenodd;stroke:#000000;stroke-width:0.459742;stroke-linecap:butt;stroke-linejoin:miter;stroke-miterlimit:4;stroke-dasharray:none;stroke-opacity:1"
           id="path124" />
      </g>
      <g
         id="g126">
        <path
           d="m 391.492,415.363 c 0,16.836 -13.637,30.485 -30.457,30.485 -16.824,0 -30.457,-13.649 -30.457,-30.485 0,-16.836 13.633,-30.484 30.457,-30.484 16.82,0 30.457,13.648 30.457,30.484 z"
           style="fill:#f7f7f7;fill-opacity:1;fill-rule:nonzero;stroke:#000000;stroke-width:0.767506;stroke-linecap:butt;stroke-linejoin:miter;stroke-miterlimit:4;stroke-dasharray:none;stroke-opacity:1"
           id="path128" />
      </g>
      <g
         id="g130">
        <path
           d="m 466.992,415.363 c 0,16.836 -13.637,30.485 -30.457,30.485 -16.824,0 -30.461,-13.649 -30.461,-30.485 0,-16.836 13.637,-30.484 30.461,-30.484 16.82,0 30.457,13.648 30.457,30.484 z"
           style="fill:#f7f7f7;fill-opacity:1;fill-rule:nonzero;stroke:#000000;stroke-width:0.767506;stroke-linecap:butt;stroke-linejoin:miter;stroke-miterlimit:4;stroke-dasharray:none;stroke-opacity:1"
           id="path132" />
      </g>
      <g
         id="g134">
        <path
           d="m 542.488,415.363 c 0,16.836 -13.633,30.485 -30.457,30.485 -16.82,0 -30.457,-13.649 -30.457,-30.485 0,-16.836 13.637,-30.484 30.457,-30.484 16.824,0 30.457,13.648 30.457,30.484 z"
           style="fill:#f7f7f7;fill-opacity:1;fill-rule:nonzero;stroke:#000000;stroke-width:0.767506;stroke-linecap:butt;stroke-linejoin:miter;stroke-miterlimit:4;stroke-dasharray:none;stroke-opacity:1"
           id="path136" />
      </g>
      <g
         id="g138">
        <path
           d="m 617.988,415.363 c 0,16.836 -13.633,30.485 -30.457,30.485 -16.82,0 -30.457,-13.649 -30.457,-30.485 0,-16.836 13.637,-30.484 30.457,-30.484 16.824,0 30.457,13.648 30.457,30.484 z"
           style="fill:#f7f7f7;fill-opacity:1;fill-rule:nonzero;stroke:#000000;stroke-width:0.767506;stroke-linecap:butt;stroke-linejoin:miter;stroke-miterlimit:4;stroke-dasharray:none;stroke-opacity:1"
           id="path140" />
      </g>
      <g
         id="g142">
        <path
           d="m 167.062,416.453 c 0,16.836 -13.636,30.485 -30.457,30.485 -16.82,0 -30.457,-13.649 -30.457,-30.485 0,-16.836 13.637,-30.484 30.457,-30.484 16.821,0 30.457,13.648 30.457,30.484 z"
           style="fill:#f7f7f7;fill-opacity:1;fill-rule:nonzero;stroke:#000000;stroke-width:0.767506;stroke-linecap:butt;stroke-linejoin:miter;stroke-miterlimit:4;stroke-dasharray:none;stroke-opacity:1"
           id="path144" />
      </g>
      <g
         id="g146">
        <path
           d="m 95.207,362.059 c -4.574,4.828 -9.363,10.406 -9.543,20.605 0.289,9.586 7.344,17.168 13.106,19.633"
           style="fill:none;stroke:#000000;stroke-width:0.749999;stroke-linecap:butt;stroke-linejoin:miter;stroke-miterlimit:4;stroke-dasharray:none;stroke-opacity:1"
           id="path148" />
      </g>
      <g
         id="g150"
         transform="matrix(1,0.427546,-0.427546,1,0,0)">
        <path
           d="m 230.911,304.42 -2.982,1.724 v -3.446 z"
           style="fill:#000000;fill-opacity:1;fill-rule:evenodd;stroke:#000000;stroke-width:0.459743;stroke-linecap:butt;stroke-linejoin:miter;stroke-miterlimit:4;stroke-dasharray:none;stroke-opacity:1"
           id="path152" />
      </g>
      <g
         id="g154">
        <path
           d="m 542.488,495.23 c 0,16.836 -13.633,30.485 -30.457,30.485 -16.82,0 -30.457,-13.649 -30.457,-30.485 0,-16.839 13.637,-30.488 30.457,-30.488 16.824,0 30.457,13.649 30.457,30.488 z"
           style="fill:#f7f7f7;fill-opacity:1;fill-rule:nonzero;stroke:#000000;stroke-width:0.767506;stroke-linecap:butt;stroke-linejoin:miter;stroke-miterlimit:4;stroke-dasharray:none;stroke-opacity:1"
           id="path156" />
      </g>
      <g
         id="g158">
        <path
           d="m 617.988,495.23 c 0,16.836 -13.633,30.485 -30.457,30.485 -16.82,0 -30.457,-13.649 -30.457,-30.485 0,-16.839 13.637,-30.488 30.457,-30.488 16.824,0 30.457,13.649 30.457,30.488 z"
           style="fill:#f7f7f7;fill-opacity:1;fill-rule:nonzero;stroke:#000000;stroke-width:0.767506;stroke-linecap:butt;stroke-linejoin:miter;stroke-miterlimit:4;stroke-dasharray:none;stroke-opacity:1"
           id="path160" />
      </g>
      <g
         id="g162">
        <path
           d="m 167.062,496.316 c 0,16.836 -13.636,30.489 -30.457,30.489 -16.82,0 -30.457,-13.653 -30.457,-30.489 0,-16.836 13.637,-30.484 30.457,-30.484 16.821,0 30.457,13.648 30.457,30.484 z"
           style="fill:#f7f7f7;fill-opacity:1;fill-rule:nonzero;stroke:#000000;stroke-width:0.767506;stroke-linecap:butt;stroke-linejoin:miter;stroke-miterlimit:4;stroke-dasharray:none;stroke-opacity:1"
           id="path164" />
      </g>
      <g
         id="g166">
        <path
           d="m 95.207,441.926 c -4.574,4.824 -9.363,10.406 -9.543,20.601 0.289,9.59 7.344,17.172 13.106,19.633"
           style="fill:none;stroke:#000000;stroke-width:0.749999;stroke-linecap:butt;stroke-linejoin:miter;stroke-miterlimit:4;stroke-dasharray:none;stroke-opacity:1"
           id="path168" />
      </g>
      <g
         id="g170"
         transform="matrix(1,0.427546,-0.427546,1,0,0)">
        <path
           d="m 259.781,371.944 -2.982,1.724 -0.002,-3.449 z"
           style="fill:#000000;fill-opacity:1;fill-rule:evenodd;stroke:#000000;stroke-width:0.459743;stroke-linecap:butt;stroke-linejoin:miter;stroke-miterlimit:4;stroke-dasharray:none;stroke-opacity:1"
           id="path172" />
      </g>
      <text
         xml:space="preserve"
         transform="matrix(0.99868094,0,0,1,-1.632046,566.76201)"
         style="font-variant:normal;font-weight:normal;font-size:17.3412px;font-family:'DejaVu Sans';-inkscape-font-specification:DejaVuSans;writing-mode:lr-tb;fill:#ff0000;fill-opacity:1;fill-rule:nonzero;stroke:none"
         id="text190"><tspan
           x="0 4.8035016 15.398951 29.566679 35.063828 46.058125 50.861626 61.457073 78.347366 88.960159 97.977562 106.99496 112.82159"
           y="0"
           sodipodi:role="line"
           id="tspan174">low biomass/ </tspan><tspan
           x="0 4.8035016 15.398951 29.566679 35.063828 44.584126 55.179573 66.156532 72.954262 83.567055 100.45734 105.26085 116.2378 126.85059 133.64833 138.45183 149.04727"
           y="21.676485"
           sodipodi:role="line"
           id="tspan176">low contamination</tspan><tspan
           x="0.059271742 4.8627734 15.458222 35.140442 44.660736 55.256187 66.233139 73.030876 83.643669 100.53396 105.33746 116.31441 126.92721 133.72495 138.52844 149.12389 160.10085"
           y="-553.58679"
           sodipodi:role="line"
           id="tspan178">lowcontamination/</tspan><tspan
           x="0.059271742 11.036226 15.839728 26.834024 37.810978 43.308128 54.302422 59.105927 69.701378 86.591667 97.204453 106.22186"
           y="-531.91034"
           sodipodi:role="line"
           id="tspan180">high biomass</tspan><tspan
           x="560.6803 571.65729 576.46075 587.45508 598.43201 603.92914 614.92346 619.72699 630.32239 647.21271 657.8255 666.8429 675.86029"
           y="-553.58679"
           sodipodi:role="line"
           id="tspan182">high biomass/</tspan><tspan
           x="560.6803 571.65729 576.46075 587.45508 598.43201 603.92914 613.44946 624.04492 635.02185 641.81958 652.43237 669.32269 674.12616 685.10315 695.71594 702.51367 707.3172 717.9126"
           y="-531.91034"
           sodipodi:role="line"
           id="tspan184">high contamination</tspan><tspan
           x="560.6803 565.48383 576.07928 590.24701 595.74414 606.73846 611.54193 622.13739 639.02765 649.64044 658.6579 667.67529"
           y="-3.3615148"
           sodipodi:role="line"
           id="tspan186">low biomass/</tspan><tspan
           x="560.6803 571.65729 576.46075 587.45508 598.43201 603.92914 613.44946 624.04492 635.02185 641.81958 652.43237 669.32269 674.12616 685.10315 695.71594 702.51367 707.3172 717.9126"
           y="18.314972"
           sodipodi:role="line"
           id="tspan188">high contamination</tspan></text>
      <g
         id="g192">
        <path
           d="m 241.172,185.188 c 0,16.835 -13.637,30.484 -30.457,30.484 -16.82,0 -30.457,-13.649 -30.457,-30.484 0,-16.836 13.637,-30.485 30.457,-30.485 16.82,0 30.457,13.649 30.457,30.485 z"
           style="fill:#f7f7f7;fill-opacity:1;fill-rule:nonzero;stroke:#000000;stroke-width:0.767506;stroke-linecap:butt;stroke-linejoin:miter;stroke-miterlimit:4;stroke-dasharray:none;stroke-opacity:1"
           id="path194" />
      </g>
      <g
         id="g196">
        <path
           d="m 316.672,185.188 c 0,16.835 -13.637,30.484 -30.457,30.484 -16.824,0 -30.457,-13.649 -30.457,-30.484 0,-16.836 13.633,-30.485 30.457,-30.485 16.82,0 30.457,13.649 30.457,30.485 z"
           style="fill:#f7f7f7;fill-opacity:1;fill-rule:nonzero;stroke:#000000;stroke-width:0.767506;stroke-linecap:butt;stroke-linejoin:miter;stroke-miterlimit:4;stroke-dasharray:none;stroke-opacity:1"
           id="path198" />
      </g>
      <g
         id="g200">
        <path
           d="m 241.172,260.754 c 0,16.836 -13.637,30.484 -30.457,30.484 -16.82,0 -30.457,-13.648 -30.457,-30.484 0,-16.836 13.637,-30.484 30.457,-30.484 16.82,0 30.457,13.648 30.457,30.484 z"
           style="fill:#f7f7f7;fill-opacity:1;fill-rule:nonzero;stroke:#000000;stroke-width:0.767506;stroke-linecap:butt;stroke-linejoin:miter;stroke-miterlimit:4;stroke-dasharray:none;stroke-opacity:1"
           id="path202" />
      </g>
      <g
         id="g204">
        <path
           d="m 316.672,260.754 c 0,16.836 -13.637,30.484 -30.457,30.484 -16.824,0 -30.457,-13.648 -30.457,-30.484 0,-16.836 13.633,-30.484 30.457,-30.484 16.82,0 30.457,13.648 30.457,30.484 z"
           style="fill:#f7f7f7;fill-opacity:1;fill-rule:nonzero;stroke:#000000;stroke-width:0.767506;stroke-linecap:butt;stroke-linejoin:miter;stroke-miterlimit:4;stroke-dasharray:none;stroke-opacity:1"
           id="path206" />
      </g>
      <g
         id="g208">
        <path
           d="m 241.172,336.324 c 0,16.836 -13.637,30.485 -30.457,30.485 -16.82,0 -30.457,-13.649 -30.457,-30.485 0,-16.84 13.637,-30.488 30.457,-30.488 16.82,0 30.457,13.648 30.457,30.488 z"
           style="fill:#f7f7f7;fill-opacity:1;fill-rule:nonzero;stroke:#000000;stroke-width:0.767506;stroke-linecap:butt;stroke-linejoin:miter;stroke-miterlimit:4;stroke-dasharray:none;stroke-opacity:1"
           id="path210" />
      </g>
      <g
         id="g212">
        <path
           d="m 316.672,336.324 c 0,16.836 -13.637,30.485 -30.457,30.485 -16.824,0 -30.457,-13.649 -30.457,-30.485 0,-16.84 13.633,-30.488 30.457,-30.488 16.82,0 30.457,13.648 30.457,30.488 z"
           style="fill:#f7f7f7;fill-opacity:1;fill-rule:nonzero;stroke:#000000;stroke-width:0.767506;stroke-linecap:butt;stroke-linejoin:miter;stroke-miterlimit:4;stroke-dasharray:none;stroke-opacity:1"
           id="path214" />
      </g>
      <g
         id="g216">
        <path
           d="m 241.172,109.617 c 0,16.84 -13.637,30.488 -30.457,30.488 -16.82,0 -30.457,-13.648 -30.457,-30.488 0,-16.836 13.637,-30.484 30.457,-30.484 16.82,0 30.457,13.648 30.457,30.484 z"
           style="fill:#f7f7f7;fill-opacity:1;fill-rule:nonzero;stroke:#000000;stroke-width:0.767506;stroke-linecap:butt;stroke-linejoin:miter;stroke-miterlimit:4;stroke-dasharray:none;stroke-opacity:1"
           id="path218" />
      </g>
      <g
         id="g220">
        <path
           d="m 316.672,109.617 c 0,16.84 -13.637,30.488 -30.457,30.488 -16.824,0 -30.457,-13.648 -30.457,-30.488 0,-16.836 13.633,-30.484 30.457,-30.484 16.82,0 30.457,13.648 30.457,30.484 z"
           style="fill:#f7f7f7;fill-opacity:1;fill-rule:nonzero;stroke:#000000;stroke-width:0.767506;stroke-linecap:butt;stroke-linejoin:miter;stroke-miterlimit:4;stroke-dasharray:none;stroke-opacity:1"
           id="path222" />
      </g>
      <text
         xml:space="preserve"
         transform="matrix(0.99868094,0,0,1,346.9459,73.11527)"
         style="font-variant:normal;font-weight:normal;font-size:17.3412px;font-family:'DejaVu Sans';-inkscape-font-specification:DejaVuSans;writing-mode:lr-tb;fill:#000000;fill-opacity:1;fill-rule:nonzero;stroke:none"
         id="text232"><tspan
           x="0 11.028978 16.855608"
           y="0"
           sodipodi:role="line"
           id="tspan224">1:1</tspan><tspan
           x="-235.758 -224.72902 -213.70003 -202.67105 -196.84442"
           y="1.0802711"
           sodipodi:role="line"
           id="tspan226">100:1</tspan><tspan
           x="75.493095 86.522072 92.348709 145.42999 156.45898 162.28561 173.31459 215.4883 226.51727 232.3439 243.37288 254.40186"
           y="-0.0084832963"
           sodipodi:role="line"
           id="tspan228">1:31:101:100</tspan><tspan
           x="-156.03499 -145.00601 -133.97704 -128.15041 -74.652916 -63.62394 -57.79731"
           y="0.81588429"
           sodipodi:role="line"
           id="tspan230">10:13:1</tspan></text>
      <g
         id="g234">
        <path
           d="m 241.172,416.188 c 0,16.835 -13.637,30.484 -30.457,30.484 -16.82,0 -30.457,-13.649 -30.457,-30.484 0,-16.836 13.637,-30.485 30.457,-30.485 16.82,0 30.457,13.649 30.457,30.485 z"
           style="fill:#f7f7f7;fill-opacity:1;fill-rule:nonzero;stroke:#000000;stroke-width:0.767506;stroke-linecap:butt;stroke-linejoin:miter;stroke-miterlimit:4;stroke-dasharray:none;stroke-opacity:1"
           id="path236" />
      </g>
      <g
         id="g238">
        <path
           d="m 316.672,416.188 c 0,16.835 -13.637,30.484 -30.457,30.484 -16.824,0 -30.457,-13.649 -30.457,-30.484 0,-16.836 13.633,-30.485 30.457,-30.485 16.82,0 30.457,13.649 30.457,30.485 z"
           style="fill:#f7f7f7;fill-opacity:1;fill-rule:nonzero;stroke:#000000;stroke-width:0.767506;stroke-linecap:butt;stroke-linejoin:miter;stroke-miterlimit:4;stroke-dasharray:none;stroke-opacity:1"
           id="path240" />
      </g>
      <g
         id="g242">
        <path
           d="m 241.172,496.055 c 0,16.836 -13.637,30.484 -30.457,30.484 -16.82,0 -30.457,-13.648 -30.457,-30.484 0,-16.836 13.637,-30.489 30.457,-30.489 16.82,0 30.457,13.653 30.457,30.489 z"
           style="fill:#f7f7f7;fill-opacity:1;fill-rule:nonzero;stroke:#000000;stroke-width:0.767506;stroke-linecap:butt;stroke-linejoin:miter;stroke-miterlimit:4;stroke-dasharray:none;stroke-opacity:1"
           id="path244" />
      </g>
      <g
         id="g246">
        <path
           d="m 391.492,495.23 c 0,16.836 -13.637,30.485 -30.457,30.485 -16.824,0 -30.457,-13.649 -30.457,-30.485 0,-16.839 13.633,-30.488 30.457,-30.488 16.82,0 30.457,13.649 30.457,30.488 z"
           style="fill:#f7f7f7;fill-opacity:1;fill-rule:nonzero;stroke:#000000;stroke-width:0.767506;stroke-linecap:butt;stroke-linejoin:miter;stroke-miterlimit:4;stroke-dasharray:none;stroke-opacity:1"
           id="path248" />
      </g>
      <g
         id="g250">
        <path
           d="m 466.992,495.23 c 0,16.836 -13.637,30.485 -30.457,30.485 -16.824,0 -30.461,-13.649 -30.461,-30.485 0,-16.839 13.637,-30.488 30.461,-30.488 16.82,0 30.457,13.649 30.457,30.488 z"
           style="fill:#f7f7f7;fill-opacity:1;fill-rule:nonzero;stroke:#000000;stroke-width:0.767506;stroke-linecap:butt;stroke-linejoin:miter;stroke-miterlimit:4;stroke-dasharray:none;stroke-opacity:1"
           id="path252" />
      </g>
      <g
         id="g254">
        <path
           d="m 316.672,496.055 c 0,16.836 -13.637,30.484 -30.457,30.484 -16.824,0 -30.457,-13.648 -30.457,-30.484 0,-16.836 13.633,-30.489 30.457,-30.489 16.82,0 30.457,13.653 30.457,30.489 z"
           style="fill:#f7f7f7;fill-opacity:1;fill-rule:nonzero;stroke:#000000;stroke-width:0.767506;stroke-linecap:butt;stroke-linejoin:miter;stroke-miterlimit:4;stroke-dasharray:none;stroke-opacity:1"
           id="path256" />
      </g>
      <text
         xml:space="preserve"
         transform="translate(125.09167,192.00336)"
         style="font-variant:normal;font-weight:normal;font-size:18px;font-family:'DejaVu Sans';-inkscape-font-specification:DejaVuSans;writing-mode:lr-tb;fill:#000000;fill-opacity:1;fill-rule:nonzero;stroke:none"
         id="text268"><tspan
           x="0 11.448"
           y="0"
           sodipodi:role="line"
           id="tspan258">20</tspan><tspan
           x="-0.32957819 11.118422"
           y="75.56794"
           sodipodi:role="line"
           id="tspan260">10</tspan><tspan
           x="5.8799"
           y="151.0172"
           id="tspan262">5</tspan><tspan
           x="-8.3979521 3.0500479 8.7560482 20.204048"
           y="230.08284"
           sodipodi:role="line"
           id="tspan264">2,25</tspan><tspan
           x="-2.9575062 8.4904938 14.196494"
           y="309.82953"
           sodipodi:role="line"
           id="tspan266">1,1</tspan></text>
      <text
         xml:space="preserve"
         transform="matrix(0.99868087,0,0,1,60.619168,227.26529)"
         style="font-variant:normal;font-weight:normal;font-size:13.0086px;font-family:'DejaVu Sans';-inkscape-font-specification:DejaVuSans;writing-mode:lr-tb;fill:#000000;fill-opacity:1;fill-rule:nonzero;stroke:none"
         id="text278"><tspan
           x="0 8.2734566 12.64434"
           y="0"
           sodipodi:role="line"
           id="tspan270">1:1</tspan><tspan
           x="0 8.2734566 12.64434"
           y="82.03878"
           sodipodi:role="line"
           id="tspan272">1:1</tspan><tspan
           x="0 8.2734566 12.64434"
           y="161.90416"
           sodipodi:role="line"
           id="tspan274">1:1</tspan><tspan
           x="0 8.2734566 12.64434"
           y="241.76958"
           sodipodi:role="line"
           id="tspan276">1:1</tspan></text>
      <text
         xml:space="preserve"
         transform="matrix(0.99868092,0,0,1,214.93985,19.175204)"
         style="font-variant:normal;font-weight:normal;font-size:20.0132px;font-family:'DejaVu Sans';-inkscape-font-specification:DejaVuSans;writing-mode:lr-tb;fill:#000000;fill-opacity:1;fill-rule:nonzero;stroke:none"
         id="text284"><tspan
           x="0 12.688379 24.936468 35.923725 43.768906 56.077034 64.302467 69.84613 82.094215 87.637878 93.982063 113.47494 125.70302 136.69028 148.27792 155.48268 166.46994 178.69801 198.19089 217.68376 230.35213 243.02049 248.56415 256.40933"
           y="0"
           sodipodi:role="line"
           id="tspan280">bacterial mock-community</tspan><tspan
           x="62.570621 79.321686 85.665878 98.334244 111.00261 130.49548 142.74358 155.41194 161.75612 177.16631 192.13618"
           y="25.016521"
           sodipodi:role="line"
           id="tspan282">+ human DNA</tspan></text>
      <g
         id="g286">
        <path
           d="m 391.609,575.918 c 0,16.836 -13.636,30.484 -30.457,30.484 -16.82,0 -30.457,-13.648 -30.457,-30.484 0,-16.836 13.637,-30.484 30.457,-30.484 16.821,0 30.457,13.648 30.457,30.484 z"
           style="fill:#f7f7f7;fill-opacity:1;fill-rule:nonzero;stroke:#000000;stroke-width:0.767506;stroke-linecap:butt;stroke-linejoin:miter;stroke-miterlimit:4;stroke-dasharray:none;stroke-opacity:1"
           id="path288" />
      </g>
      <text
         xml:space="preserve"
         transform="translate(346.98834,571.69411)"
         style="font-variant:normal;font-weight:normal;font-size:12px;font-family:'DejaVu Sans';-inkscape-font-specification:DejaVuSans;writing-mode:lr-tb;fill:#000000;fill-opacity:1;fill-rule:nonzero;stroke:none"
         id="text294"><tspan
           x="0 7.6079936 15.203987 19.871983"
           y="0"
           sodipodi:role="line"
           id="tspan290">pure</tspan><tspan
           x="-2.6513617 9.0366287 16.368622 22.956617"
           y="14.999976"
           sodipodi:role="line"
           id="tspan292">mock</tspan></text>
      <g
         id="g296">
        <path
           d="m 466.992,575.918 c 0,16.836 -13.637,30.484 -30.457,30.484 -16.824,0 -30.461,-13.648 -30.461,-30.484 0,-16.836 13.637,-30.484 30.461,-30.484 16.82,0 30.457,13.648 30.457,30.484 z"
           style="fill:#f7f7f7;fill-opacity:1;fill-rule:nonzero;stroke:#000000;stroke-width:0.767506;stroke-linecap:butt;stroke-linejoin:miter;stroke-miterlimit:4;stroke-dasharray:none;stroke-opacity:1"
           id="path298" />
      </g>
      <text
         xml:space="preserve"
         transform="translate(410.28036,572.89237)"
         style="font-variant:normal;font-weight:normal;font-size:12px;font-family:'DejaVu Sans';-inkscape-font-specification:DejaVuSans;writing-mode:lr-tb;fill:#000000;fill-opacity:1;fill-rule:nonzero;stroke:none"
         id="text304"><tspan
           x="0 7.5959935 14.975987 22.583981 29.927975 34.631969 37.955967 45.047962"
           y="0"
           sodipodi:role="line"
           id="tspan300">negative</tspan><tspan
           x="0 6.5879946 13.919989 21.515982 26.219978 30.887974 38.219967 41.543964"
           y="14.999987"
           sodipodi:role="line"
           id="tspan302">controle</tspan></text>
      <g
         id="g306">
        <path
           d="m 316.789,575.918 c 0,16.836 -13.637,30.484 -30.457,30.484 -16.82,0 -30.457,-13.648 -30.457,-30.484 0,-16.836 13.637,-30.484 30.457,-30.484 16.82,0 30.457,13.648 30.457,30.484 z"
           style="fill:#f7f7f7;fill-opacity:1;fill-rule:nonzero;stroke:#000000;stroke-width:0.767506;stroke-linecap:butt;stroke-linejoin:miter;stroke-miterlimit:4;stroke-dasharray:none;stroke-opacity:1"
           id="path308" />
      </g>
      <text
         xml:space="preserve"
         transform="translate(272.6598,571.69411)"
         style="font-variant:normal;font-weight:normal;font-size:12px;font-family:'DejaVu Sans';-inkscape-font-specification:DejaVuSans;writing-mode:lr-tb;fill:#000000;fill-opacity:1;fill-rule:nonzero;stroke:none"
         id="text314"><tspan
           x="0 7.6079936 15.203987 19.871983"
           y="0"
           sodipodi:role="line"
           id="tspan310">pure</tspan><tspan
           x="-7.291986 0.30400774 7.9000015 19.587992 26.931986"
           y="14.999976"
           sodipodi:role="line"
           id="tspan312">human</tspan></text>
    </g>
  </g>
</svg>
