<?xml version="1.0" encoding="UTF-8" standalone="no"?>
<!-- Created with Inkscape (http://www.inkscape.org/) -->

<svg
   version="1.1"
   id="svg2"
   width="813.09467"
   height="817.04291"
   viewBox="0 0 813.09467 817.0429"
   sodipodi:docname="experimental_design_actualNew.svg"
   inkscape:version="1.2.2 (1:1.2.2+202305151914+b0a8486541)"
   xmlns:inkscape="http://www.inkscape.org/namespaces/inkscape"
   xmlns:sodipodi="http://sodipodi.sourceforge.net/DTD/sodipodi-0.dtd"
   xmlns="http://www.w3.org/2000/svg"
   xmlns:svg="http://www.w3.org/2000/svg">
  <defs
     id="defs6" />
  <sodipodi:namedview
     id="namedview4"
     pagecolor="#ffffff"
     bordercolor="#666666"
     borderopacity="1.0"
     inkscape:showpageshadow="2"
     inkscape:pageopacity="0.0"
     inkscape:pagecheckerboard="0"
     inkscape:deskcolor="#d1d1d1"
     showgrid="false"
     inkscape:zoom="0.58260858"
     inkscape:cx="566.41803"
     inkscape:cy="545.82101"
     inkscape:window-width="1846"
     inkscape:window-height="1043"
     inkscape:window-x="1994"
     inkscape:window-y="0"
     inkscape:window-maximized="1"
     inkscape:current-layer="g4196">
    <inkscape:page
       x="0"
       y="0"
       id="page8"
       width="813.09467"
       height="817.04291"
       inkscape:export-filename="experimental_design_actual.png"
       inkscape:export-xdpi="300"
       inkscape:export-ydpi="300" />
  </sodipodi:namedview>
  <g
     id="g10"
     inkscape:groupmode="layer"
     inkscape:label="Page 1"
     transform="matrix(1.3333333,0,0,1.3333333,-11.546763,7.9952428)">
    <g
       id="g12">
      <g
         id="g14"
         style="fill:none">
        <path
           d="m 391.492,184.363 c 0,16.836 -13.637,30.485 -30.457,30.485 -16.824,0 -30.457,-13.649 -30.457,-30.485 0,-16.836 13.633,-30.484 30.457,-30.484 16.82,0 30.457,13.648 30.457,30.484 z"
           style="fill:none;fill-opacity:1;fill-rule:nonzero;stroke:#000000;stroke-width:0.767506;stroke-linecap:butt;stroke-linejoin:miter;stroke-miterlimit:4;stroke-dasharray:none;stroke-opacity:1"
           id="path16" />
      </g>
      <g
         id="g18"
         style="fill:none">
        <path
           d="m 466.992,184.363 c 0,16.836 -13.637,30.485 -30.461,30.485 -16.82,0 -30.457,-13.649 -30.457,-30.485 0,-16.836 13.637,-30.484 30.457,-30.484 16.824,0 30.461,13.648 30.461,30.484 z"
           style="fill:none;fill-opacity:1;fill-rule:nonzero;stroke:#000000;stroke-width:0.767506;stroke-linecap:butt;stroke-linejoin:miter;stroke-miterlimit:4;stroke-dasharray:none;stroke-opacity:1"
           id="path20" />
      </g>
      <g
         id="g22"
         style="fill:none">
        <path
           d="m 542.488,184.363 c 0,16.836 -13.633,30.485 -30.457,30.485 -16.82,0 -30.457,-13.649 -30.457,-30.485 0,-16.836 13.637,-30.484 30.457,-30.484 16.824,0 30.457,13.648 30.457,30.484 z"
           style="fill:none;fill-opacity:1;fill-rule:nonzero;stroke:#000000;stroke-width:0.767506;stroke-linecap:butt;stroke-linejoin:miter;stroke-miterlimit:4;stroke-dasharray:none;stroke-opacity:1"
           id="path24" />
      </g>
      <g
         id="g26"
         style="fill:none">
        <path
           d="m 617.988,184.363 c 0,16.836 -13.633,30.485 -30.457,30.485 -16.82,0 -30.457,-13.649 -30.457,-30.485 0,-16.836 13.637,-30.484 30.457,-30.484 16.824,0 30.457,13.648 30.457,30.484 z"
           style="fill:none;fill-opacity:1;fill-rule:nonzero;stroke:#000000;stroke-width:0.767506;stroke-linecap:butt;stroke-linejoin:miter;stroke-miterlimit:4;stroke-dasharray:none;stroke-opacity:1"
           id="path28" />
      </g>
      <g
         id="g30"
         style="fill:none">
        <path
           d="m 391.492,259.93 c 0,16.836 -13.637,30.484 -30.457,30.484 -16.824,0 -30.457,-13.648 -30.457,-30.484 0,-16.836 13.633,-30.485 30.457,-30.485 16.82,0 30.457,13.649 30.457,30.485 z"
           style="fill:none;fill-opacity:1;fill-rule:nonzero;stroke:#000000;stroke-width:0.767506;stroke-linecap:butt;stroke-linejoin:miter;stroke-miterlimit:4;stroke-dasharray:none;stroke-opacity:1"
           id="path32" />
      </g>
      <g
         id="g34"
         style="fill:none">
        <path
           d="m 466.992,259.93 c 0,16.836 -13.637,30.484 -30.461,30.484 -16.82,0 -30.457,-13.648 -30.457,-30.484 0,-16.836 13.637,-30.485 30.457,-30.485 16.824,0 30.461,13.649 30.461,30.485 z"
           style="fill:none;fill-opacity:1;fill-rule:nonzero;stroke:#000000;stroke-width:0.767506;stroke-linecap:butt;stroke-linejoin:miter;stroke-miterlimit:4;stroke-dasharray:none;stroke-opacity:1"
           id="path36" />
      </g>
      <g
         id="g38"
         style="fill:none">
        <path
           d="m 542.488,259.93 c 0,16.836 -13.633,30.484 -30.457,30.484 -16.82,0 -30.457,-13.648 -30.457,-30.484 0,-16.836 13.637,-30.485 30.457,-30.485 16.824,0 30.457,13.649 30.457,30.485 z"
           style="fill:none;fill-opacity:1;fill-rule:nonzero;stroke:#000000;stroke-width:0.767506;stroke-linecap:butt;stroke-linejoin:miter;stroke-miterlimit:4;stroke-dasharray:none;stroke-opacity:1"
           id="path40" />
      </g>
      <g
         id="g42"
         style="fill:none">
        <path
           d="m 617.988,259.93 c 0,16.836 -13.633,30.484 -30.457,30.484 -16.82,0 -30.457,-13.648 -30.457,-30.484 0,-16.836 13.637,-30.485 30.457,-30.485 16.824,0 30.457,13.649 30.457,30.485 z"
           style="fill:none;fill-opacity:1;fill-rule:nonzero;stroke:#000000;stroke-width:0.767506;stroke-linecap:butt;stroke-linejoin:miter;stroke-miterlimit:4;stroke-dasharray:none;stroke-opacity:1"
           id="path44" />
      </g>
      <g
         id="g46"
         style="fill:none">
        <path
           d="m 391.492,335.5 c 0,16.836 -13.637,30.484 -30.457,30.484 -16.824,0 -30.457,-13.648 -30.457,-30.484 0,-16.84 13.633,-30.488 30.457,-30.488 16.82,0 30.457,13.648 30.457,30.488 z"
           style="fill:none;fill-opacity:1;fill-rule:nonzero;stroke:#000000;stroke-width:0.767506;stroke-linecap:butt;stroke-linejoin:miter;stroke-miterlimit:4;stroke-dasharray:none;stroke-opacity:1"
           id="path48" />
      </g>
      <g
         id="g50"
         style="fill:none">
        <path
           d="m 466.992,335.5 c 0,16.836 -13.637,30.484 -30.461,30.484 -16.82,0 -30.457,-13.648 -30.457,-30.484 0,-16.84 13.637,-30.488 30.457,-30.488 16.824,0 30.461,13.648 30.461,30.488 z"
           style="fill:none;fill-opacity:1;fill-rule:nonzero;stroke:#000000;stroke-width:0.767506;stroke-linecap:butt;stroke-linejoin:miter;stroke-miterlimit:4;stroke-dasharray:none;stroke-opacity:1"
           id="path52" />
      </g>
      <g
         id="g54"
         style="fill:none">
        <path
           d="m 542.488,335.5 c 0,16.836 -13.633,30.484 -30.457,30.484 -16.82,0 -30.457,-13.648 -30.457,-30.484 0,-16.84 13.637,-30.488 30.457,-30.488 16.824,0 30.457,13.648 30.457,30.488 z"
           style="fill:none;fill-opacity:1;fill-rule:nonzero;stroke:#000000;stroke-width:0.767506;stroke-linecap:butt;stroke-linejoin:miter;stroke-miterlimit:4;stroke-dasharray:none;stroke-opacity:1"
           id="path56" />
      </g>
      <g
         id="g58"
         style="fill:none">
        <path
           d="m 617.988,335.5 c 0,16.836 -13.633,30.484 -30.457,30.484 -16.82,0 -30.457,-13.648 -30.457,-30.484 0,-16.84 13.637,-30.488 30.457,-30.488 16.824,0 30.457,13.648 30.457,30.488 z"
           style="fill:none;fill-opacity:1;fill-rule:nonzero;stroke:#000000;stroke-width:0.767506;stroke-linecap:butt;stroke-linejoin:miter;stroke-miterlimit:4;stroke-dasharray:none;stroke-opacity:1"
           id="path60" />
      </g>
      <g
         id="g62"
         style="fill:none">
        <path
           d="m 391.492,108.793 c 0,16.84 -13.637,30.488 -30.457,30.488 -16.824,0 -30.457,-13.648 -30.457,-30.488 0,-16.836 13.633,-30.484 30.457,-30.484 16.82,0 30.457,13.648 30.457,30.484 z"
           style="fill:none;fill-opacity:1;fill-rule:nonzero;stroke:#000000;stroke-width:0.767506;stroke-linecap:butt;stroke-linejoin:miter;stroke-miterlimit:4;stroke-dasharray:none;stroke-opacity:1"
           id="path64" />
      </g>
      <g
         id="g66"
         style="fill:none">
        <path
           d="m 167.062,185.449 c 0,16.84 -13.636,30.489 -30.457,30.489 -16.82,0 -30.457,-13.649 -30.457,-30.489 0,-16.836 13.637,-30.484 30.457,-30.484 16.821,0 30.457,13.648 30.457,30.484 z"
           style="fill:none;fill-opacity:1;fill-rule:nonzero;stroke:#000000;stroke-width:0.767506;stroke-linecap:butt;stroke-linejoin:miter;stroke-miterlimit:4;stroke-dasharray:none;stroke-opacity:1"
           id="path68" />
      </g>
      <text
         xml:space="preserve"
         style="font-size:18px;line-height:0;font-family:sans-serif;text-align:center;text-anchor:middle;stroke-width:0.75"
         x="136.61964"
         y="184.00522"
         id="text1769-9"><tspan
           sodipodi:role="line"
           id="tspan1767-1"
           style="line-height:1.25;text-align:center;text-anchor:middle;stroke-width:0.75"
           x="136.61964"
           y="184.00522">20</tspan><tspan
           sodipodi:role="line"
           style="font-size:10px;line-height:1;text-align:center;text-anchor:middle;fill:#4d4d4d;stroke-width:0.75"
           x="136.61964"
           y="198.17709"
           id="tspan1771-2">ng/µl</tspan></text>
      <g
         id="g70"
         style="fill:none">
        <path
           d="m 167.062,261.02 c 0,16.835 -13.636,30.484 -30.457,30.484 -16.82,0 -30.457,-13.649 -30.457,-30.484 0,-16.836 13.637,-30.485 30.457,-30.485 16.821,0 30.457,13.649 30.457,30.485 z"
           style="fill:none;fill-opacity:1;fill-rule:nonzero;stroke:#000000;stroke-width:0.767506;stroke-linecap:butt;stroke-linejoin:miter;stroke-miterlimit:4;stroke-dasharray:none;stroke-opacity:1"
           id="path72" />
      </g>
      <text
         xml:space="preserve"
         style="font-size:18px;line-height:0;font-family:sans-serif;text-align:center;text-anchor:middle;stroke-width:0.75"
         x="136.61964"
         y="259.57321"
         id="text1769-7"><tspan
           sodipodi:role="line"
           id="tspan1767-0"
           style="line-height:1.25;text-align:center;text-anchor:middle;stroke-width:0.75"
           x="136.61964"
           y="259.57321">10</tspan><tspan
           sodipodi:role="line"
           style="font-size:10px;line-height:1;text-align:center;text-anchor:middle;fill:#4d4d4d;stroke-width:0.75"
           x="136.61964"
           y="273.74509"
           id="tspan1771-9">ng/µl</tspan></text>
      <g
         id="g74"
         style="fill:none">
        <path
           d="m 167.062,336.586 c 0,16.836 -13.636,30.484 -30.457,30.484 -16.82,0 -30.457,-13.648 -30.457,-30.484 0,-16.836 13.637,-30.484 30.457,-30.484 16.821,0 30.457,13.648 30.457,30.484 z"
           style="fill:none;fill-opacity:1;fill-rule:nonzero;stroke:#000000;stroke-width:0.767506;stroke-linecap:butt;stroke-linejoin:miter;stroke-miterlimit:4;stroke-dasharray:none;stroke-opacity:1"
           id="path76" />
      </g>
      <text
         xml:space="preserve"
         style="font-size:18px;line-height:0;font-family:sans-serif;text-align:center;text-anchor:middle;stroke-width:0.75"
         x="136.61964"
         y="335.02106"
         id="text1769-8"><tspan
           sodipodi:role="line"
           id="tspan1767-97"
           style="line-height:1.25;text-align:center;text-anchor:middle;stroke-width:0.75"
           x="136.61964"
           y="335.02106">5</tspan><tspan
           sodipodi:role="line"
           style="font-size:10px;line-height:1;text-align:center;text-anchor:middle;fill:#4d4d4d;stroke-width:0.75"
           x="136.61964"
           y="349.19293"
           id="tspan1771-36">ng/µl</tspan></text>
      <g
         id="g78"
         style="fill:none">
        <path
           d="m 167.062,109.883 c 0,16.836 -13.636,30.484 -30.457,30.484 -16.82,0 -30.457,-13.648 -30.457,-30.484 0,-16.836 13.637,-30.485 30.457,-30.485 16.821,0 30.457,13.649 30.457,30.485 z"
           style="fill:none;fill-opacity:1;fill-rule:nonzero;stroke:#000000;stroke-width:0.767506;stroke-linecap:butt;stroke-linejoin:miter;stroke-miterlimit:4;stroke-dasharray:none;stroke-opacity:1"
           id="path80" />
      </g>
      <text
         xml:space="preserve"
         transform="matrix(0.99868094,0,0,1,125.73913,116.19555)"
         style="font-variant:normal;font-weight:normal;font-size:17.3412px;font-family:'DejaVu Sans';-inkscape-font-specification:DejaVuSans;writing-mode:lr-tb;fill:#000000;fill-opacity:1;fill-rule:nonzero;stroke:none"
         id="text84"><tspan
           sodipodi:role="line"
           id="tspan82"
           x="0"
           y="0" /><tspan
           x="0 11.028978"
           y="0"
           sodipodi:role="line"
           id="tspan1759" /><tspan
           x="0 11.028978"
           y="0"
           sodipodi:role="line"
           id="tspan1761" /></text>
      <g
         id="g86"
         style="fill:none">
        <path
           d="m 466.992,108.793 c 0,16.84 -13.637,30.488 -30.461,30.488 -16.82,0 -30.457,-13.648 -30.457,-30.488 0,-16.836 13.637,-30.484 30.457,-30.484 16.824,0 30.461,13.648 30.461,30.484 z"
           style="fill:none;fill-opacity:1;fill-rule:nonzero;stroke:#000000;stroke-width:0.767506;stroke-linecap:butt;stroke-linejoin:miter;stroke-miterlimit:4;stroke-dasharray:none;stroke-opacity:1"
           id="path88" />
      </g>
      <g
         id="g90"
         style="fill:none">
        <path
           d="m 542.488,108.793 c 0,16.84 -13.633,30.488 -30.457,30.488 -16.82,0 -30.457,-13.648 -30.457,-30.488 0,-16.836 13.637,-30.484 30.457,-30.484 16.824,0 30.457,13.648 30.457,30.484 z"
           style="fill:none;fill-opacity:1;fill-rule:nonzero;stroke:#000000;stroke-width:0.767506;stroke-linecap:butt;stroke-linejoin:miter;stroke-miterlimit:4;stroke-dasharray:none;stroke-opacity:1"
           id="path92" />
      </g>
      <g
         id="g94"
         style="fill:none">
        <path
           d="m 617.988,108.793 c 0,16.84 -13.633,30.488 -30.457,30.488 -16.82,0 -30.457,-13.648 -30.457,-30.488 0,-16.836 13.637,-30.484 30.457,-30.484 16.824,0 30.457,13.648 30.457,30.484 z"
           style="fill:none;fill-opacity:1;fill-rule:nonzero;stroke:#000000;stroke-width:0.767506;stroke-linecap:butt;stroke-linejoin:miter;stroke-miterlimit:4;stroke-dasharray:none;stroke-opacity:1"
           id="path96" />
      </g>
      <text
         xml:space="preserve"
         transform="matrix(0.99868087,0,0,1,60.619168,152.06724)"
         style="font-variant:normal;font-weight:normal;font-size:13.0086px;font-family:'DejaVu Sans';-inkscape-font-specification:DejaVuSans;writing-mode:lr-tb;fill:#000000;fill-opacity:1;fill-rule:nonzero;stroke:none"
         id="text100"><tspan
           x="0 8.2734566 12.64434"
           y="0"
           sodipodi:role="line"
           id="tspan98">1:1</tspan></text>
      <g
         id="g102">
        <path
           d="m 98.059,124.957 c -4.575,4.828 -9.364,10.406 -9.543,20.605 0.293,9.586 7.343,17.168 13.105,19.633"
           style="fill:none;stroke:#000000;stroke-width:0.749999;stroke-linecap:butt;stroke-linejoin:miter;stroke-miterlimit:4;stroke-dasharray:none;stroke-opacity:1"
           id="path104" />
      </g>
      <g
         id="g106"
         transform="matrix(1,0.427546,-0.427546,1,0,0)">
        <path
           d="m 147.617,102.93 -2.982,1.724 v -3.445 z"
           style="fill:#000000;fill-opacity:1;fill-rule:evenodd;stroke:#000000;stroke-width:0.459742;stroke-linecap:butt;stroke-linejoin:miter;stroke-miterlimit:4;stroke-dasharray:none;stroke-opacity:1"
           id="path108" />
      </g>
      <g
         id="g110">
        <path
           d="m 98.059,202.328 c -4.575,4.828 -9.364,10.406 -9.543,20.606 0.293,9.586 7.343,17.168 13.105,19.632"
           style="fill:none;stroke:#000000;stroke-width:0.749999;stroke-linecap:butt;stroke-linejoin:miter;stroke-miterlimit:4;stroke-dasharray:none;stroke-opacity:1"
           id="path112" />
      </g>
      <g
         id="g114"
         transform="matrix(1,0.427546,-0.427546,1,0,0)">
        <path
           d="m 175.584,168.344 -2.982,1.724 v -3.445 z"
           style="fill:#000000;fill-opacity:1;fill-rule:evenodd;stroke:#000000;stroke-width:0.459742;stroke-linecap:butt;stroke-linejoin:miter;stroke-miterlimit:4;stroke-dasharray:none;stroke-opacity:1"
           id="path116" />
      </g>
      <g
         id="g118">
        <path
           d="m 95.207,282.195 c -4.574,4.825 -9.363,10.407 -9.543,20.602 0.289,9.59 7.344,17.172 13.106,19.633"
           style="fill:none;stroke:#000000;stroke-width:0.749999;stroke-linecap:butt;stroke-linejoin:miter;stroke-miterlimit:4;stroke-dasharray:none;stroke-opacity:1"
           id="path120" />
      </g>
      <g
         id="g122"
         transform="matrix(1,0.427546,-0.427546,1,0,0)">
        <path
           d="m 202.043,236.899 -2.982,1.724 -0.002,-3.449 z"
           style="fill:#000000;fill-opacity:1;fill-rule:evenodd;stroke:#000000;stroke-width:0.459742;stroke-linecap:butt;stroke-linejoin:miter;stroke-miterlimit:4;stroke-dasharray:none;stroke-opacity:1"
           id="path124" />
      </g>
      <g
         id="g126"
         style="fill:none">
        <path
           d="m 391.492,415.363 c 0,16.836 -13.637,30.485 -30.457,30.485 -16.824,0 -30.457,-13.649 -30.457,-30.485 0,-16.836 13.633,-30.484 30.457,-30.484 16.82,0 30.457,13.648 30.457,30.484 z"
           style="fill:none;fill-opacity:1;fill-rule:nonzero;stroke:#000000;stroke-width:0.767506;stroke-linecap:butt;stroke-linejoin:miter;stroke-miterlimit:4;stroke-dasharray:none;stroke-opacity:1"
           id="path128" />
      </g>
      <g
         id="g130"
         style="fill:none">
        <path
           d="m 466.992,415.363 c 0,16.836 -13.637,30.485 -30.457,30.485 -16.824,0 -30.461,-13.649 -30.461,-30.485 0,-16.836 13.637,-30.484 30.461,-30.484 16.82,0 30.457,13.648 30.457,30.484 z"
           style="fill:none;fill-opacity:1;fill-rule:nonzero;stroke:#000000;stroke-width:0.767506;stroke-linecap:butt;stroke-linejoin:miter;stroke-miterlimit:4;stroke-dasharray:none;stroke-opacity:1"
           id="path132" />
      </g>
      <g
         id="g134"
         style="fill:none">
        <path
           d="m 542.488,415.363 c 0,16.836 -13.633,30.485 -30.457,30.485 -16.82,0 -30.457,-13.649 -30.457,-30.485 0,-16.836 13.637,-30.484 30.457,-30.484 16.824,0 30.457,13.648 30.457,30.484 z"
           style="fill:none;fill-opacity:1;fill-rule:nonzero;stroke:#000000;stroke-width:0.767506;stroke-linecap:butt;stroke-linejoin:miter;stroke-miterlimit:4;stroke-dasharray:none;stroke-opacity:1"
           id="path136" />
      </g>
      <g
         id="g138"
         style="fill:none">
        <path
           d="m 617.988,415.363 c 0,16.836 -13.633,30.485 -30.457,30.485 -16.82,0 -30.457,-13.649 -30.457,-30.485 0,-16.836 13.637,-30.484 30.457,-30.484 16.824,0 30.457,13.648 30.457,30.484 z"
           style="fill:none;fill-opacity:1;fill-rule:nonzero;stroke:#000000;stroke-width:0.767506;stroke-linecap:butt;stroke-linejoin:miter;stroke-miterlimit:4;stroke-dasharray:none;stroke-opacity:1"
           id="path140" />
      </g>
      <g
         id="g142"
         style="fill:none">
        <path
           d="m 167.062,416.453 c 0,16.836 -13.636,30.485 -30.457,30.485 -16.82,0 -30.457,-13.649 -30.457,-30.485 0,-16.836 13.637,-30.484 30.457,-30.484 16.821,0 30.457,13.648 30.457,30.484 z"
           style="fill:none;fill-opacity:1;fill-rule:nonzero;stroke:#000000;stroke-width:0.767506;stroke-linecap:butt;stroke-linejoin:miter;stroke-miterlimit:4;stroke-dasharray:none;stroke-opacity:1"
           id="path144" />
      </g>
      <text
         xml:space="preserve"
         style="font-size:18px;line-height:0;font-family:sans-serif;text-align:center;text-anchor:middle;stroke-width:0.75"
         x="136.73244"
         y="415.0072"
         id="text1769-75"><tspan
           sodipodi:role="line"
           id="tspan1767-9"
           style="line-height:1.25;text-align:center;text-anchor:middle;stroke-width:0.75"
           x="136.73244"
           y="415.0072">2.25</tspan><tspan
           sodipodi:role="line"
           style="font-size:10px;line-height:1;text-align:center;text-anchor:middle;fill:#4d4d4d;stroke-width:0.75"
           x="136.73244"
           y="429.17908"
           id="tspan1771-22">ng/µl</tspan></text>
      <g
         id="g146">
        <path
           d="m 95.207,362.059 c -4.574,4.828 -9.363,10.406 -9.543,20.605 0.289,9.586 7.344,17.168 13.106,19.633"
           style="fill:none;stroke:#000000;stroke-width:0.749999;stroke-linecap:butt;stroke-linejoin:miter;stroke-miterlimit:4;stroke-dasharray:none;stroke-opacity:1"
           id="path148" />
      </g>
      <g
         id="g150"
         transform="matrix(1,0.427546,-0.427546,1,0,0)">
        <path
           d="m 230.911,304.42 -2.982,1.724 v -3.446 z"
           style="fill:#000000;fill-opacity:1;fill-rule:evenodd;stroke:#000000;stroke-width:0.459743;stroke-linecap:butt;stroke-linejoin:miter;stroke-miterlimit:4;stroke-dasharray:none;stroke-opacity:1"
           id="path152" />
      </g>
      <g
         id="g154"
         style="fill:none">
        <path
           d="m 542.488,495.23 c 0,16.836 -13.633,30.485 -30.457,30.485 -16.82,0 -30.457,-13.649 -30.457,-30.485 0,-16.839 13.637,-30.488 30.457,-30.488 16.824,0 30.457,13.649 30.457,30.488 z"
           style="fill:none;fill-opacity:1;fill-rule:nonzero;stroke:#000000;stroke-width:0.767506;stroke-linecap:butt;stroke-linejoin:miter;stroke-miterlimit:4;stroke-dasharray:none;stroke-opacity:1"
           id="path156" />
      </g>
      <g
         id="g158"
         style="fill:none">
        <path
           d="m 617.988,495.23 c 0,16.836 -13.633,30.485 -30.457,30.485 -16.82,0 -30.457,-13.649 -30.457,-30.485 0,-16.839 13.637,-30.488 30.457,-30.488 16.824,0 30.457,13.649 30.457,30.488 z"
           style="fill:none;fill-opacity:1;fill-rule:nonzero;stroke:#000000;stroke-width:0.767506;stroke-linecap:butt;stroke-linejoin:miter;stroke-miterlimit:4;stroke-dasharray:none;stroke-opacity:1"
           id="path160" />
      </g>
      <g
         id="g162"
         style="fill:none">
        <path
           d="m 167.062,496.316 c 0,16.836 -13.636,30.489 -30.457,30.489 -16.82,0 -30.457,-13.653 -30.457,-30.489 0,-16.836 13.637,-30.484 30.457,-30.484 16.821,0 30.457,13.648 30.457,30.484 z"
           style="fill:none;fill-opacity:1;fill-rule:nonzero;stroke:#000000;stroke-width:0.767506;stroke-linecap:butt;stroke-linejoin:miter;stroke-miterlimit:4;stroke-dasharray:none;stroke-opacity:1"
           id="path164" />
      </g>
      <text
         xml:space="preserve"
         style="font-size:18px;line-height:0;font-family:sans-serif;text-align:center;text-anchor:middle;stroke-width:0.75"
         x="136.44679"
         y="494.75357"
         id="text1769-92"><tspan
           sodipodi:role="line"
           id="tspan1767-02"
           style="line-height:1.25;text-align:center;text-anchor:middle;stroke-width:0.75"
           x="136.44679"
           y="494.75357">1.1</tspan><tspan
           sodipodi:role="line"
           style="font-size:10px;line-height:1;text-align:center;text-anchor:middle;fill:#4d4d4d;stroke-width:0.75"
           x="136.44679"
           y="508.92545"
           id="tspan1771-3">ng/µl</tspan></text>
      <g
         id="g166">
        <path
           d="m 95.207,441.926 c -4.574,4.824 -9.363,10.406 -9.543,20.601 0.289,9.59 7.344,17.172 13.106,19.633"
           style="fill:none;stroke:#000000;stroke-width:0.749999;stroke-linecap:butt;stroke-linejoin:miter;stroke-miterlimit:4;stroke-dasharray:none;stroke-opacity:1"
           id="path168" />
      </g>
      <g
         id="g170"
         transform="matrix(1,0.427546,-0.427546,1,0,0)">
        <path
           d="m 259.781,371.944 -2.982,1.724 -0.002,-3.449 z"
           style="fill:#000000;fill-opacity:1;fill-rule:evenodd;stroke:#000000;stroke-width:0.459743;stroke-linecap:butt;stroke-linejoin:miter;stroke-miterlimit:4;stroke-dasharray:none;stroke-opacity:1"
           id="path172" />
      </g>
      <g
         id="g192"
         style="fill:none">
        <path
           d="m 241.172,185.188 c 0,16.835 -13.637,30.484 -30.457,30.484 -16.82,0 -30.457,-13.649 -30.457,-30.484 0,-16.836 13.637,-30.485 30.457,-30.485 16.82,0 30.457,13.649 30.457,30.485 z"
           style="fill:none;fill-opacity:1;fill-rule:nonzero;stroke:#000000;stroke-width:0.767506;stroke-linecap:butt;stroke-linejoin:miter;stroke-miterlimit:4;stroke-dasharray:none;stroke-opacity:1"
           id="path194" />
      </g>
      <g
         id="g196"
         style="fill:none">
        <path
           d="m 316.672,185.188 c 0,16.835 -13.637,30.484 -30.457,30.484 -16.824,0 -30.457,-13.649 -30.457,-30.484 0,-16.836 13.633,-30.485 30.457,-30.485 16.82,0 30.457,13.649 30.457,30.485 z"
           style="fill:none;fill-opacity:1;fill-rule:nonzero;stroke:#000000;stroke-width:0.767506;stroke-linecap:butt;stroke-linejoin:miter;stroke-miterlimit:4;stroke-dasharray:none;stroke-opacity:1"
           id="path198" />
      </g>
      <g
         id="g200"
         style="fill:none">
        <path
           d="m 241.172,260.754 c 0,16.836 -13.637,30.484 -30.457,30.484 -16.82,0 -30.457,-13.648 -30.457,-30.484 0,-16.836 13.637,-30.484 30.457,-30.484 16.82,0 30.457,13.648 30.457,30.484 z"
           style="fill:none;fill-opacity:1;fill-rule:nonzero;stroke:#000000;stroke-width:0.767506;stroke-linecap:butt;stroke-linejoin:miter;stroke-miterlimit:4;stroke-dasharray:none;stroke-opacity:1"
           id="path202" />
      </g>
      <g
         id="g204"
         style="fill:none">
        <path
           d="m 316.672,260.754 c 0,16.836 -13.637,30.484 -30.457,30.484 -16.824,0 -30.457,-13.648 -30.457,-30.484 0,-16.836 13.633,-30.484 30.457,-30.484 16.82,0 30.457,13.648 30.457,30.484 z"
           style="fill:none;fill-opacity:1;fill-rule:nonzero;stroke:#000000;stroke-width:0.767506;stroke-linecap:butt;stroke-linejoin:miter;stroke-miterlimit:4;stroke-dasharray:none;stroke-opacity:1"
           id="path206" />
      </g>
      <g
         id="g208"
         style="fill:none">
        <path
           d="m 241.172,336.324 c 0,16.836 -13.637,30.485 -30.457,30.485 -16.82,0 -30.457,-13.649 -30.457,-30.485 0,-16.84 13.637,-30.488 30.457,-30.488 16.82,0 30.457,13.648 30.457,30.488 z"
           style="fill:none;fill-opacity:1;fill-rule:nonzero;stroke:#000000;stroke-width:0.767506;stroke-linecap:butt;stroke-linejoin:miter;stroke-miterlimit:4;stroke-dasharray:none;stroke-opacity:1"
           id="path210" />
      </g>
      <g
         id="g212"
         style="fill:none">
        <path
           d="m 316.672,336.324 c 0,16.836 -13.637,30.485 -30.457,30.485 -16.824,0 -30.457,-13.649 -30.457,-30.485 0,-16.84 13.633,-30.488 30.457,-30.488 16.82,0 30.457,13.648 30.457,30.488 z"
           style="fill:none;fill-opacity:1;fill-rule:nonzero;stroke:#000000;stroke-width:0.767506;stroke-linecap:butt;stroke-linejoin:miter;stroke-miterlimit:4;stroke-dasharray:none;stroke-opacity:1"
           id="path214" />
      </g>
      <g
         id="g216"
         style="fill:none">
        <path
           d="m 241.172,109.617 c 0,16.84 -13.637,30.488 -30.457,30.488 -16.82,0 -30.457,-13.648 -30.457,-30.488 0,-16.836 13.637,-30.484 30.457,-30.484 16.82,0 30.457,13.648 30.457,30.484 z"
           style="fill:none;fill-opacity:1;fill-rule:nonzero;stroke:#000000;stroke-width:0.767506;stroke-linecap:butt;stroke-linejoin:miter;stroke-miterlimit:4;stroke-dasharray:none;stroke-opacity:1"
           id="path218" />
      </g>
      <g
         id="g220"
         style="fill:none">
        <path
           d="m 316.672,109.617 c 0,16.84 -13.637,30.488 -30.457,30.488 -16.824,0 -30.457,-13.648 -30.457,-30.488 0,-16.836 13.633,-30.484 30.457,-30.484 16.82,0 30.457,13.648 30.457,30.484 z"
           style="fill:none;fill-opacity:1;fill-rule:nonzero;stroke:#000000;stroke-width:0.767506;stroke-linecap:butt;stroke-linejoin:miter;stroke-miterlimit:4;stroke-dasharray:none;stroke-opacity:1"
           id="path222" />
      </g>
      <g
         id="g234"
         style="fill:none">
        <path
           d="m 241.172,416.188 c 0,16.835 -13.637,30.484 -30.457,30.484 -16.82,0 -30.457,-13.649 -30.457,-30.484 0,-16.836 13.637,-30.485 30.457,-30.485 16.82,0 30.457,13.649 30.457,30.485 z"
           style="fill:none;fill-opacity:1;fill-rule:nonzero;stroke:#000000;stroke-width:0.767506;stroke-linecap:butt;stroke-linejoin:miter;stroke-miterlimit:4;stroke-dasharray:none;stroke-opacity:1"
           id="path236" />
      </g>
      <g
         id="g238"
         style="fill:none">
        <path
           d="m 316.672,416.188 c 0,16.835 -13.637,30.484 -30.457,30.484 -16.824,0 -30.457,-13.649 -30.457,-30.484 0,-16.836 13.633,-30.485 30.457,-30.485 16.82,0 30.457,13.649 30.457,30.485 z"
           style="fill:none;fill-opacity:1;fill-rule:nonzero;stroke:#000000;stroke-width:0.767506;stroke-linecap:butt;stroke-linejoin:miter;stroke-miterlimit:4;stroke-dasharray:none;stroke-opacity:1"
           id="path240" />
      </g>
      <g
         id="g242"
         style="fill:none">
        <path
           d="m 241.172,496.055 c 0,16.836 -13.637,30.484 -30.457,30.484 -16.82,0 -30.457,-13.648 -30.457,-30.484 0,-16.836 13.637,-30.489 30.457,-30.489 16.82,0 30.457,13.653 30.457,30.489 z"
           style="fill:none;fill-opacity:1;fill-rule:nonzero;stroke:#000000;stroke-width:0.767506;stroke-linecap:butt;stroke-linejoin:miter;stroke-miterlimit:4;stroke-dasharray:none;stroke-opacity:1"
           id="path244" />
      </g>
      <g
         id="g246"
         style="fill:none">
        <path
           d="m 391.492,495.23 c 0,16.836 -13.637,30.485 -30.457,30.485 -16.824,0 -30.457,-13.649 -30.457,-30.485 0,-16.839 13.633,-30.488 30.457,-30.488 16.82,0 30.457,13.649 30.457,30.488 z"
           style="fill:none;fill-opacity:1;fill-rule:nonzero;stroke:#000000;stroke-width:0.767506;stroke-linecap:butt;stroke-linejoin:miter;stroke-miterlimit:4;stroke-dasharray:none;stroke-opacity:1"
           id="path248" />
      </g>
      <g
         id="g250"
         style="fill:none">
        <path
           d="m 466.992,495.23 c 0,16.836 -13.637,30.485 -30.457,30.485 -16.824,0 -30.461,-13.649 -30.461,-30.485 0,-16.839 13.637,-30.488 30.461,-30.488 16.82,0 30.457,13.649 30.457,30.488 z"
           style="fill:none;fill-opacity:1;fill-rule:nonzero;stroke:#000000;stroke-width:0.767506;stroke-linecap:butt;stroke-linejoin:miter;stroke-miterlimit:4;stroke-dasharray:none;stroke-opacity:1"
           id="path252" />
      </g>
      <g
         id="g254"
         style="fill:none">
        <path
           d="m 316.672,496.055 c 0,16.836 -13.637,30.484 -30.457,30.484 -16.824,0 -30.457,-13.648 -30.457,-30.484 0,-16.836 13.633,-30.489 30.457,-30.489 16.82,0 30.457,13.653 30.457,30.489 z"
           style="fill:none;fill-opacity:1;fill-rule:nonzero;stroke:#000000;stroke-width:0.767506;stroke-linecap:butt;stroke-linejoin:miter;stroke-miterlimit:4;stroke-dasharray:none;stroke-opacity:1"
           id="path256" />
      </g>
      <text
         xml:space="preserve"
         transform="matrix(0.99868087,0,0,1,60.619168,227.26529)"
         style="font-variant:normal;font-weight:normal;font-size:13.0086px;font-family:'DejaVu Sans';-inkscape-font-specification:DejaVuSans;writing-mode:lr-tb;fill:#000000;fill-opacity:1;fill-rule:nonzero;stroke:none"
         id="text278"><tspan
           x="0 8.2734566 12.64434"
           y="0"
           sodipodi:role="line"
           id="tspan270">1:1</tspan><tspan
           x="0 8.2734566 12.64434"
           y="82.03878"
           sodipodi:role="line"
           id="tspan272">1:1</tspan><tspan
           x="0 8.2734566 12.64434"
           y="161.90416"
           sodipodi:role="line"
           id="tspan274">1:1</tspan><tspan
           x="0 8.2734566 12.64434"
           y="241.76958"
           sodipodi:role="line"
           id="tspan276">1:1</tspan></text>
      <g
         id="g286"
         style="fill:#542200;fill-opacity:0.678431">
        <path
           d="m 391.609,575.918 c 0,16.836 -13.636,30.484 -30.457,30.484 -16.82,0 -30.457,-13.648 -30.457,-30.484 0,-16.836 13.637,-30.484 30.457,-30.484 16.821,0 30.457,13.648 30.457,30.484 z"
           style="fill:#542200;fill-opacity:0.678431;fill-rule:nonzero;stroke:#000000;stroke-width:0.767506;stroke-linecap:butt;stroke-linejoin:miter;stroke-miterlimit:4;stroke-dasharray:none;stroke-opacity:1"
           id="path288" />
      </g>
      <text
         xml:space="preserve"
         transform="translate(346.98834,571.69411)"
         style="font-variant:normal;font-weight:normal;font-size:12px;font-family:'DejaVu Sans';-inkscape-font-specification:DejaVuSans;writing-mode:lr-tb;fill:#000000;fill-opacity:1;fill-rule:nonzero;stroke:none"
         id="text294"><tspan
           x="0 7.6079936 15.203987 19.871983"
           y="0"
           sodipodi:role="line"
           id="tspan290">pure</tspan><tspan
           x="-2.6513617 9.0366287 16.368622 22.956617"
           y="14.999976"
           sodipodi:role="line"
           id="tspan292">mock</tspan></text>
      <g
         id="g296"
         style="fill:none">
        <path
           d="m 466.992,575.918 c 0,16.836 -13.637,30.484 -30.457,30.484 -16.824,0 -30.461,-13.648 -30.461,-30.484 0,-16.836 13.637,-30.484 30.461,-30.484 16.82,0 30.457,13.648 30.457,30.484 z"
           style="fill:none;fill-opacity:1;fill-rule:nonzero;stroke:#000000;stroke-width:0.767506;stroke-linecap:butt;stroke-linejoin:miter;stroke-miterlimit:4;stroke-dasharray:none;stroke-opacity:1"
           id="path298" />
      </g>
      <text
         xml:space="preserve"
         transform="translate(410.28036,572.89237)"
         style="font-variant:normal;font-weight:normal;font-size:12px;font-family:'DejaVu Sans';-inkscape-font-specification:DejaVuSans;writing-mode:lr-tb;fill:#000000;fill-opacity:1;fill-rule:nonzero;stroke:none"
         id="text304"><tspan
           x="0 7.5959935 14.975987 22.583981 29.927975 34.631969 37.955967 45.047962"
           y="0"
           sodipodi:role="line"
           id="tspan300">negative</tspan><tspan
           x="0 6.5879946 13.919989 21.515982 26.219978 30.887974 38.219967 41.543964"
           y="14.999987"
           sodipodi:role="line"
           id="tspan302">controle</tspan></text>
      <g
         id="g306"
         style="fill:#aa0000;fill-opacity:0.564706">
        <path
           d="m 316.789,575.918 c 0,16.836 -13.637,30.484 -30.457,30.484 -16.82,0 -30.457,-13.648 -30.457,-30.484 0,-16.836 13.637,-30.484 30.457,-30.484 16.82,0 30.457,13.648 30.457,30.484 z"
           style="fill:#aa0000;fill-opacity:0.564706;fill-rule:nonzero;stroke:#000000;stroke-width:0.767506;stroke-linecap:butt;stroke-linejoin:miter;stroke-miterlimit:4;stroke-dasharray:none;stroke-opacity:1"
           id="path308" />
      </g>
      <text
         xml:space="preserve"
         transform="translate(272.6598,571.69411)"
         style="font-variant:normal;font-weight:normal;font-size:12px;font-family:'DejaVu Sans';-inkscape-font-specification:DejaVuSans;writing-mode:lr-tb;fill:#000000;fill-opacity:1;fill-rule:nonzero;stroke:none"
         id="text314"><tspan
           x="0 7.6079936 15.203987 19.871983"
           y="0"
           sodipodi:role="line"
           id="tspan310">pure</tspan><tspan
           x="-7.291986 0.30400774 7.9000015 19.587992 26.931986"
           y="14.999976"
           sodipodi:role="line"
           id="tspan312">human</tspan></text>
      <text
         xml:space="preserve"
         style="font-size:18px;line-height:0;font-family:sans-serif;text-align:center;text-anchor:middle;stroke-width:0.75"
         x="136.61964"
         y="108.43621"
         id="text1769"><tspan
           sodipodi:role="line"
           id="tspan1767"
           style="line-height:1.25;text-align:center;text-anchor:middle;stroke-width:0.75"
           x="136.61964"
           y="108.43621">40</tspan><tspan
           sodipodi:role="line"
           style="font-size:10px;line-height:1;text-align:center;text-anchor:middle;fill:#4d4d4d;stroke-width:0.75"
           x="136.61964"
           y="122.60809"
           id="tspan1771">ng/µl</tspan></text>
      <g
         id="g2001">
        <text
           xml:space="preserve"
           style="font-size:18px;line-height:1.25;font-family:sans-serif;stroke-width:0.75"
           x="116.65822"
           y="73.883873"
           id="text1961"><tspan
             sodipodi:role="line"
             id="tspan1959"
             style="stroke-width:0.75"
             x="116.65822"
             y="73.883873">99:1</tspan></text>
        <text
           xml:space="preserve"
           style="font-size:18px;line-height:1.25;font-family:sans-serif;stroke-width:0.75"
           x="185.85358"
           y="73.883873"
           id="text1965"><tspan
             sodipodi:role="line"
             id="tspan1963"
             style="stroke-width:0.75"
             x="185.85358"
             y="73.883873">90:10</tspan></text>
        <text
           xml:space="preserve"
           style="font-size:18px;line-height:1.25;font-family:sans-serif;stroke-width:0.75"
           x="261.02548"
           y="73.883873"
           id="text1969"><tspan
             sodipodi:role="line"
             id="tspan1967"
             style="stroke-width:0.75"
             x="261.02548"
             y="73.883873">75:25</tspan></text>
        <text
           xml:space="preserve"
           style="font-size:18px;line-height:1.25;font-family:sans-serif;stroke-width:0.75"
           x="336.03479"
           y="73.883873"
           id="text1973"><tspan
             sodipodi:role="line"
             id="tspan1971"
             style="stroke-width:0.75"
             x="336.03479"
             y="73.883873">50:50</tspan></text>
        <text
           xml:space="preserve"
           style="font-size:18px;line-height:1.25;font-family:sans-serif;stroke-width:0.75"
           x="411.41324"
           y="73.883873"
           id="text1977"><tspan
             sodipodi:role="line"
             id="tspan1975"
             style="stroke-width:0.75"
             x="411.41324"
             y="73.883873">25:75</tspan></text>
        <text
           xml:space="preserve"
           style="font-size:18px;line-height:1.25;font-family:sans-serif;stroke-width:0.75"
           x="486.04904"
           y="73.883873"
           id="text1981"><tspan
             sodipodi:role="line"
             id="tspan1979"
             style="stroke-width:0.75"
             x="486.04904"
             y="73.883873">10:90</tspan></text>
        <text
           xml:space="preserve"
           style="font-size:18px;line-height:1.25;font-family:sans-serif;stroke-width:0.75"
           x="566.9646"
           y="73.883873"
           id="text1985"><tspan
             sodipodi:role="line"
             id="tspan1983"
             style="stroke-width:0.75"
             x="566.9646"
             y="73.883873">1:99</tspan></text>
      </g>
      <g
         id="g4196"
         transform="rotate(-90,293.17411,-259.14624)">
        <g
           id="g1869"
           transform="matrix(0,2.7354985,-0.99195456,0,340.19792,111.40614)">
          <rect
             style="fill:none;fill-opacity:0.96456;stroke:#2f2f2f;stroke-width:0.803002;stroke-linecap:round;stroke-linejoin:round;stroke-miterlimit:10"
             id="rect1698"
             width="186.6322"
             height="51.049721"
             x="-203.57379"
             y="303.00974"
             ry="0" />
          <path
             style="fill:none;stroke:#000000;stroke-width:0.75px;stroke-linecap:butt;stroke-linejoin:miter;stroke-miterlimit:10;stroke-opacity:1"
             d="m -203.57379,354.05944 186.632201,-51.0497"
             id="path1865" />
        </g>
        <path
           style="fill:#552200;fill-opacity:0.679141;stroke:#2f2f2f;stroke-width:0.944766;stroke-linecap:round;stroke-linejoin:round;stroke-miterlimit:10"
           d="M 13.749583,-195.81868 C 0.56086917,-328.92308 -9.6536674,-439.40047 -9.8392458,-440.89976 l -0.3537732,-3.31223 27.577205,-0.0232 21.644854,0.21951 -0.0709,245.19582 c -0.03895,134.603678 0.425831,259.728546 0.329709,259.728546 -0.09611,0 -12.349511,-123.622987 -25.538225,-256.727396 z"
           id="path2853"
           sodipodi:nodetypes="sscccsss" />
        <path
           style="fill:#aa0000;fill-opacity:0.562882;stroke:#2f2f2f;stroke-width:0.94488;stroke-linecap:butt;stroke-linejoin:miter;stroke-miterlimit:8.6;stroke-dasharray:none"
           d="m -9.9627537,-181.62711 c 0.040963,-134.43712 -0.6884213,-257.83713 -0.5579423,-256.8376 0.13048,0.99953 11.8236703,124.26326 24.921871,256.53473 13.0982,132.271451 24.323851,243.617584 24.510078,244.783704 0.318321,1.993306 -1.225293,0.398914 -24.225555,0.693957 l -24.999909,0.320682 z"
           id="path2924"
           sodipodi:nodetypes="csssscc" />
        <text
           xml:space="preserve"
           style="font-size:18px;line-height:1.25;font-family:sans-serif;white-space:pre;stroke-width:0.75"
           x="-427.30673"
           y="-10.84353"
           id="text3534"
           transform="rotate(90)"><tspan
             sodipodi:role="line"
             id="tspan3532"
             style="stroke-width:0.75"
             x="-427.30673"
             y="-10.84353">bacterial</tspan></text>
        <text
           xml:space="preserve"
           style="font-size:18px;line-height:1.25;font-family:sans-serif;white-space:pre;stroke-width:0.75"
           x="-16.414331"
           y="-4.493237"
           id="text3538"
           transform="rotate(90)"><tspan
             sodipodi:role="line"
             style="stroke-width:0.75"
             x="-16.414331"
             y="-4.493237"
             id="tspan3540">human</tspan></text>
        <path
           style="fill:#999999;fill-opacity:0.679141;stroke:#2f2f2f;stroke-width:0.888926;stroke-linecap:round;stroke-linejoin:round;stroke-miterlimit:10"
           d="m -265.98258,-532.27793 c 0,0 216.27669,-10.39798 217.602493,-10.58379 l 2.928919,-0.3541 0.02034,27.60847 -0.1941,21.66935 -216.809462,-12.34388 c -118.87738,-6.76827 -229.19269,-14.85032 -229.19269,-14.85032 0,0 0.9132,-0.0571 2.62331,-0.14567 25.17232,-1.31169 223.02119,-11.00006 223.02119,-11.00006 z"
           id="path2853-4"
           sodipodi:nodetypes="cscccsssc" />
        <text
           xml:space="preserve"
           style="font-size:18px;line-height:1.25;font-family:sans-serif;stroke-width:0.75"
           x="-221.74884"
           y="-513.89075"
           id="text3104"><tspan
             sodipodi:role="line"
             id="tspan3102"
             style="stroke-width:0.75"
             x="-221.74884"
             y="-513.89075">DNA concentration</tspan></text>
      </g>
    </g>
  </g>
</svg>
